<svg width="938" height="938" viewBox="0 0 938 938" fill="none" xmlns="http://www.w3.org/2000/svg">
<g clip-path="url(#clip0_2964_1802)">
<path d="M677.199 288.582V719.726H641.484V659.982C632.034 679.692 617.469 696.013 597.764 708.948C578.059 721.882 555.686 728.349 530.645 728.349C487.942 728.349 452.843 712.951 425.347 682.155C397.842 651.359 384.09 612.975 384.09 566.978C384.09 521.4 397.842 483.119 425.347 452.109C452.843 421.108 487.13 405.607 528.181 405.607C553.214 405.607 575.69 411.458 595.609 423.161C615.519 434.863 630.802 451.399 641.484 472.742V288.582H677.199ZM533.108 697.553C565.94 697.553 592.838 685.235 613.774 660.598C634.711 635.961 645.179 604.763 645.179 566.978C645.179 529.193 634.711 497.995 613.774 473.358C592.838 448.721 565.949 436.403 533.108 436.403C499.856 436.403 472.856 448.525 452.133 472.742C431.402 496.977 421.036 528.389 421.036 566.978C421.036 605.567 431.393 636.996 452.133 661.214C472.856 685.449 499.856 697.553 533.108 697.553Z" fill="white"/>
<path d="M531.973 153.379V584.523H496.258V524.779C486.807 544.488 472.242 560.81 452.538 573.745C432.833 586.679 410.46 593.146 385.418 593.146C342.716 593.146 307.616 577.748 280.12 546.952C252.616 516.156 238.863 477.772 238.863 431.775C238.863 386.197 252.616 347.916 280.12 316.906C307.616 285.904 341.903 270.404 382.955 270.404C407.988 270.404 430.464 276.255 450.382 287.958C470.292 299.66 485.576 316.196 496.258 337.539V153.379H531.973ZM387.881 562.35C420.714 562.35 447.611 550.032 468.548 525.395C489.484 500.758 499.952 469.56 499.952 431.775C499.952 393.99 489.484 362.792 468.548 338.155C447.611 313.518 420.722 301.2 387.881 301.2C354.629 301.2 327.629 313.321 306.907 337.539C286.175 361.774 275.81 393.186 275.81 431.775C275.81 470.364 286.167 501.793 306.907 526.011C327.629 550.246 354.629 562.35 387.881 562.35Z" fill="white"/>
</g>
<defs>
<clipPath id="clip0_2964_1802">
<rect width="511" height="816.403" fill="white" transform="translate(213 61)"/>
</clipPath>
</defs>
</svg>
