<?xml version="1.0" encoding="UTF-8"?>
<svg id="Layer_2" data-name="Layer 2" xmlns="http://www.w3.org/2000/svg" viewBox="0 0 98.2178 62.6951">
  <path
    d="M44.4816,61.1829h-6c-2.208-2.9517-3.3103-6.8042-3.3103-11.5562-1.2413,3.7446-3.6045,6.8579-7.086,9.3423-3.4834,2.4839-7.1557,3.7261-11.0169,3.7261-5.1722,0-9.3103-1.5293-12.4134-4.5903-3.1036-3.0591-4.6549-6.9658-4.6549-11.7178,0-4.8228,1.6032-8.6758,4.8102-11.5562,3.2065-2.8789,7.2927-4.7148,12.2582-5.5078l18.3096-3.1323v-2.5918c0-7.9194-4.4477-11.8799-13.3441-11.8799-4.3448,0-7.7244.9902-10.1377,2.9697-2.4152,1.9814-3.6209,4.3389-3.6209,7.0742,0,.7207.0678,1.2603.2072,1.6201l-4.8621,1.728c-.4831-1.0801-.724-2.4473-.724-4.104,0-4.1753,1.81-7.7036,5.4308-10.584,3.6204-2.8789,8.1883-4.3203,13.7066-4.3203,6.2067,0,10.9814,1.4951,14.3272,4.4819,3.344,2.9888,5.0169,7.1113,5.0169,12.3662v24.8398c0,3.0967.2072,5.562.6206,7.3979.4139,1.8359,1.2413,3.834,2.483,5.9941ZM16.8023,56.72c5.687,0,10.2061-2.3223,13.5537-6.9663,3.3481-4.644,5.022-9.8447,5.022-15.606v-2.6997l-18.0356,3.0239c-4.0332.7202-7.1465,2.0889-9.3423,4.104-2.1968,2.0166-3.2939,4.5356-3.2939,7.5601,0,3.0962,1.1157,5.6343,3.3481,7.6138,2.231,1.981,5.147,2.9702,8.748,2.9702Z"
    style="fill: #231f20;" />
  <path
    d="M93.5733,44.0837l4.6445,3.0239c-2.377,4.8975-5.5996,8.6943-9.666,11.394-4.0684,2.7002-8.7324,4.0503-13.9863,4.0503-7.9214,0-14.418-2.6631-19.4941-7.9922-5.0757-5.3276-7.6138-12.0962-7.6138-20.3042,0-8.0625,2.646-14.7959,7.938-20.1958s11.6807-8.1001,19.1699-8.1001c5.6875,0,10.5469,1.2959,14.5801,3.8882,4.0312,2.5918,7.0195,6.1929,8.9648,10.7998l-4.7539,3.0239c-1.873-3.9585-4.4277-6.9658-7.668-9.0181-3.2383-2.0518-6.875-3.0776-10.9062-3.0776-5.978,0-10.9458,2.0518-14.9048,6.1558-3.9604,4.104-5.9399,9.6123-5.9399,16.5239,0,6.7686,1.9609,12.2412,5.8857,16.416,3.9233,4.1768,8.9102,6.2642,14.959,6.2642,4.6055,0,8.3691-1.1152,11.2852-3.3481,2.916-2.231,5.416-5.3999,7.5059-9.5039Z"
    style="fill: #231f20;" />

  <path
    d="M49.4985,1.4204c.98.9468,1.4702,2.2197,1.4702,3.8198s-.4902,2.8735-1.4702,3.8198c-.98.9468-2.1831,1.4199-3.6099,1.4199s-2.6299-.4731-3.6099-1.4199c-.98-.9463-1.4702-2.2197-1.4702-3.8198s.4902-2.873,1.4702-3.8198,2.1831-1.4204,3.6099-1.4204,2.6299.4736,3.6099,1.4204ZM43.0888,8.2803c.7466.7998,1.6797,1.1997,2.7998,1.1997s2.0532-.3999,2.8003-1.1997c.7466-.8003,1.1196-1.813,1.1196-3.04s-.373-2.2402-1.1196-3.04c-.7471-.7998-1.6802-1.2002-2.8003-1.2002s-2.0532.4004-2.7998,1.2002c-.7471.7998-1.1201,1.8135-1.1201,3.04s.373,2.2397,1.1201,3.04Z"
    style="fill: #231f20;" />
</svg>
