<?xml version="1.0" encoding="UTF-8"?>
<svg id="Layer_1" data-name="Layer 1" xmlns="http://www.w3.org/2000/svg" viewBox="0 0 59.749 95.436">
  <path d="M54.277,26.604v50.4h-4.176v-6.984c-1.105,2.304-2.808,4.212-5.112,5.724-2.304,1.512-4.92,2.268-7.848,2.268-4.993,0-9.097-1.8-12.312-5.4-3.216-3.6-4.824-8.087-4.824-13.464,0-5.328,1.608-9.803,4.824-13.428,3.215-3.624,7.224-5.436,12.024-5.436,2.927,0,5.555.684,7.884,2.052,2.328,1.368,4.115,3.301,5.364,5.796v-21.528h4.176ZM37.429,74.412c3.839,0,6.984-1.44,9.432-4.32,2.448-2.88,3.672-6.527,3.672-10.944s-1.224-8.064-3.672-10.944c-2.448-2.88-5.592-4.32-9.432-4.32-3.888,0-7.045,1.417-9.468,4.248-2.424,2.833-3.636,6.505-3.636,11.016s1.211,8.185,3.636,11.016c2.423,2.833,5.58,4.248,9.468,4.248Z"/>
  <path d="M37.296,10.799v50.4h-4.176v-6.984c-1.105,2.304-2.808,4.212-5.112,5.724-2.304,1.512-4.92,2.268-7.848,2.268-4.993,0-9.097-1.8-12.312-5.4-3.216-3.6-4.824-8.087-4.824-13.464,0-5.328,1.608-9.803,4.824-13.428,3.215-3.624,7.224-5.436,12.024-5.436,2.927,0,5.555.684,7.884,2.052,2.328,1.368,4.115,3.301,5.364,5.796V10.799h4.176ZM20.448,58.607c3.839,0,6.984-1.44,9.432-4.32,2.448-2.88,3.672-6.527,3.672-10.944s-1.224-8.064-3.672-10.944c-2.448-2.88-5.592-4.32-9.432-4.32-3.888,0-7.045,1.417-9.468,4.248-2.424,2.833-3.636,6.505-3.636,11.016s1.211,8.185,3.636,11.016c2.423,2.833,5.58,4.248,9.468,4.248Z"/>
</svg>