<svg xmlns="http://www.w3.org/2000/svg" version="1.1" xmlns:xlink="http://www.w3.org/1999/xlink" width="1000" height="1000"><style>
    #light-icon {
      display: inline;
    }
    #dark-icon {
      display: none;
    }

    @media (prefers-color-scheme: dark) {
      #light-icon {
        display: none;
      }
      #dark-icon {
        display: inline;
      }
    }
  </style><g id="light-icon"><svg xmlns="http://www.w3.org/2000/svg" version="1.1" xmlns:xlink="http://www.w3.org/1999/xlink" width="1000" height="1000"><g><g transform="matrix(5.546376302774464,0,0,5.546376302774464,0,40.69764539686821)"><svg xmlns="http://www.w3.org/2000/svg" version="1.1" xmlns:xlink="http://www.w3.org/1999/xlink" width="180.2979" height="165.6225"><svg id="Layer_2" data-name="Layer 2" xmlns="http://www.w3.org/2000/svg" viewBox="0 0 180.2979 165.6225">
  <g id="Layer_1-2" data-name="Layer 1">
    <g>
      <g>
        <path d="M83.8092,78.9183c0-11.4653-4.2532-23.3972-21.7421-23.3972-7.2073,0-14.0634,2.0063-18.7928,5.0807l2.3671,6.8513c4.0174-2.5981,9.5696-4.2532,14.8861-4.2532,11.701,0,13.0001,8.5111,13.0001,13.2358v1.1836c-22.0982-.1203-34.3862,7.443-34.3862,21.2706,0,8.2706,5.9082,16.4257,17.489,16.4257,8.1551,0,14.2991-4.0174,17.489-8.5063h.356l.8275,7.2073h9.4542c-.7121-3.9019-.9478-8.7469-.9478-13.7073v-21.3909ZM73.7681,94.7522c0,1.0633-.2406,2.2469-.5918,3.3102-1.6551,4.845-6.3846,9.5744-13.8276,9.5744-5.3165,0-9.8102-3.1947-9.8102-9.9305,0-11.1092,12.8846-13.1155,24.2296-12.8798v9.9257Z" style="fill: #231f20;"></path>
        <path d="M124.1421,106.9247c-11.345,0-19.8561-8.1551-19.8561-21.3909,0-11.932,7.0918-21.6219,20.2122-21.6219,5.6725,0,9.5696,1.299,12.0522,2.7136l2.3623-8.0348c-2.8338-1.4193-8.2706-2.9541-14.4146-2.9541-18.6726,0-30.7296,12.7643-30.7296,30.3736,0,17.489,11.2295,29.19,28.4827,29.19,7.6836,0,13.7073-1.8908,16.4257-3.3102l-1.7705-7.7991c-2.9541,1.299-6.8561,2.8338-12.7643,2.8338Z" style="fill: #231f20;"></path>
        <path d="M96.3666,51.1909c0-4.3734-2.8338-7.4479-6.9715-7.4479s-7.0918,3.0744-7.0918,7.4479c0,4.2532,2.8387,7.443,6.9715,7.443,4.3734,0,7.0918-3.1899,7.0918-7.443Z" style="fill: #231f20;"></path>
      </g>
      <g id="Generative_Object" data-name="Generative Object">
        <g>
          <path d="M88.4254,43.5372c9.9075-.9768,10.5034,14.2138,1.7504,15.097-9.8958.9985-10.6706-14.2175-1.7504-15.097Z" style="fill: #231f20;"></path>
          <path d="M88.5348,44.303c2.3725-.1125,1.8871,2.7657.1094,3.0632-2.7923.4672-2.8506-2.9332-.1094-3.0632Z" style="fill: #231f20;"></path>
          <path d="M91.5979,45.5064c1.4096-.1257-.1461,2.2332-.8752,1.641-.6118-.4969.4125-1.5997.8752-1.641Z" style="fill: #231f20;"></path>
        </g>
        <g>
          <g>
            <path d="M137.8188,61.4785c-.1886.0262-.407-.1646-.547-.2188-11.0559-4.7695-24.7504-2.8155-32.8195,5.9622-9.1629,9.9675-8.3566,28.3717,1.9145,37.7972,8.2466,7.5677,21.507,8.122,31.3427,3.5008.0068.0288.2718.2553.3282.4923.0887.3725.6728,2.6653.6017,2.7897-11.9626,5.2932-28.2668,5.1609-37.5784-5.087-9.6541-10.6249-9.8522-29.6078-.8752-40.6962,9.0216-11.1435,25.6035-13.0118,38.3442-7.7126l.1641.2735c-.2518.9588-.6457,1.9421-.8752,2.8991Z" style="fill: #231f20;"></path>
            <path d="M137.2718,61.2597c.14.0542.3584.245.547.2188-.0961.4007-.106.8956-.2188,1.3128-4.3056-1.9228-9.3932-2.7105-14.1124-2.5162-15.7106.6469-25.7951,12.3134-24.0677,28.006.1318,1.1971.3682,2.4423.6564,3.6101.024.0975.0839.1209.1094.2188.5676,2.1825,1.3441,3.9422,2.4068,5.9075.0353.0654.0587.1276.1094.2188,1.5185,2.7276,2.7756,4.3062,5.1417,6.3451.0709.0611.129.1442.2188.2188,2.0328,1.6883,4.048,2.9458,6.5639,3.8289.0818.0287.2438-.0282.3282,0,3.6299,1.2118,5.6983,1.3602,9.5177,1.3128.0173-.0002.0079.1176.3282.1094,2.3608-.0604,4.7019-.3623,7.0015-.8752.0941-.021.1785-.0738.3282-.1094,1.8414-.4381,3.6167-1.0194,5.3605-1.7504.1238.461.1524.8135.2188,1.094-15.5406,6.7105-34.4314.9071-38.3989-16.7927-5.279-23.5508,16.7484-38.5689,37.9613-30.3581Z" style="fill: #231f20;"></path>
            <path d="M137.2718,61.2597c-21.2128-8.2109-43.2402,6.8072-37.9613,30.3581,3.9674,17.6997,22.8582,23.5032,38.3989,16.7927.0082.0345-.0082.0749,0,.1094-9.8357,4.6213-23.096,4.0669-31.3427-3.5008-10.2711-9.4255-11.0774-27.8297-1.9145-37.7972,8.0692-8.7777,21.7637-10.7317,32.8195-5.9622Z" style="fill: #231f20;"></path>
            <g>
              <path d="M106.312,74.8252c-3.944,8.8776-2.4235,21.9686,5.634,28.2248,1.8362,1.4257,5.1623,3.0884,7.4938,3.282-.0116.095.0272.0997.1094.1094.3678.0432.7233.0807,1.094.1094-.0116.095.0272.0998.1094.1094.239.028.5186-.0047.7658,0,.0084.1695.2022.1064.3282.1094.2538.0061.5119-.0008.7658,0,.8522.4247,1.713-.4003,1.9692.547l-.1094,2.6256c-3.8194.0474-5.8878-.1009-9.5177-1.3128l.7111-2.4068-1.0393,2.4068c-2.5159-.8831-4.5311-2.1406-6.5639-3.8289l2.0239-2.188-2.2427,1.9692c-2.3661-2.0389-3.6232-3.6175-5.1417-6.3451l3.1726-1.6957-3.282,1.4769c-1.0627-1.9653-1.8391-3.725-2.4068-5.9075l3.8289-1.1487-3.9383.9299c-.2882-1.1679-.5246-2.413-.6564-3.6101l.4376-4.7588,3.5008-.1094-3.3914-.4376c.1856-2.5441,1.026-8.8592,4.2118-9.2442,1.3436-.1623,1.2352.4647,2.1333,1.094Z" style="fill: #231f20;"></path>
              <path d="M123.4876,60.2752l-.1094,3.3914c-.1446.0046-.2933-.0078-.4376,0-.4651-3.8408-5.4586-2.3492-6.2904.547-.9759-2.9613-7.1506.3882-5.4152,2.7897-.3299-.0818-.4674-.6793-.6564-.3282-.075,2.3125-.4509,1.1184-1.0393,1.0393-1.2863-.173-2.8174.4485-3.8289,1.2034-.2308.1722-1.8885,1.887-1.9145,2.0239-.075.3948,2.7752,2.0802,3.282,2.3521-.2515.4506-.5568,1.0611-.7658,1.5316-.8981-.6292-.7897-1.2563-2.1333-1.094-3.1859.3849-4.0262,6.7001-4.2118,9.2442l3.3914.4376-3.5008.1094-.4376,4.7588c-1.7275-15.6926,8.357-27.3591,24.0677-28.006Z" style="fill: #231f20;"></path>
              <path d="M122.9406,63.6665c-6.4396.3488-12.7087,3.9748-15.8628,9.6271-.5067-.2718-3.357-1.9573-3.282-2.3521.026-.1368,1.6837-1.8517,1.9145-2.0239,1.0115-.7549,2.5426-1.3764,3.8289-1.2034.5884.0791.9643,1.2732,1.0393-1.0393.189-.3511.3265.2464.6564.3282-1.7354-2.4015,4.4393-5.751,5.4152-2.7897.8318-2.8962,5.8253-4.3878,6.2904-.547Z" style="fill: #231f20;"></path>
              <path d="M137.6,62.7913c-.305,1.1285-.6385,2.2571-.9299,3.3914-4.3456-1.4872-8.6277-2.6655-13.2919-2.5162l.1094-3.3914c4.7192-.1943,9.8068.5934,14.1124,2.5162Z" style="fill: #231f20;"></path>
              <path d="M130.4891,106.1131c-.0167.406.5045.6174.8752.6564-.0045.2845.1493,1.1161.2188,1.4222-.2028.5379-1.5041.172-1.9145.2188-.1071.0122-.796.4188-.9846.4376-.4025.0402-.6806-.0411-1.2034,0-.925.0727-1.861.1239-2.7897.1094-.0133-.5832.0481-1.0586-.1094-1.641-.2562-.9472-1.1169-.1223-1.9692-.547,2.8079.0088,5.1172-.0825,7.8767-.6564Z" style="fill: #231f20;"></path>
              <path d="M137.1624,105.8943c-.513-.1781-.0638-.6104-.4923-.547-.5181.6531-1.7809.6254-2.188.7658-.4185.1443-1.214.7916-1.5316.8752-.3345.088-.5719-.4675-1.2581.2188-.0761-.234-.1264-.4802-.2188-.7111-.1578-.1233-.108.1816-.1094.2735-.3707-.039-.8918-.2504-.8752-.6564,2.0131-.4187,4.2315-1.1173,6.0716-1.9692l.2735.1641c.1655.4882.1948,1.1177.3282,1.5863Z" style="fill: #231f20;"></path>
              <path d="M137.1624,105.8943c.0442.1551.0697.2901.1094.4376-1.3102,1.2128-3.6451,1.3156-5.3605,1.8598-.0851-.3199-.115-.6656-.2188-.9846.6862-.6862.9236-.1308,1.2581-.2188.3176-.0835,1.113-.7309,1.5316-.8752.4071-.1404,1.6698-.1127,2.188-.7658.4285-.0634-.0207.3689.4923.547Z" style="fill: #231f20;"></path>
              <path d="M137.4906,107.3165c-1.7439.731-3.5191,1.3123-5.3605,1.7504.0662-.3266-.1428-.5897-.2188-.8752,1.7155-.5441,4.0503-.647,5.3605-1.8598.0907.3373.1385.6857.2188.9846Z" style="fill: #231f20;"></path>
              <path d="M119.5492,106.4413c-.0822-.0097-.121-.0144-.1094-.1094.0834.0069.1207.0162.1094.1094Z" style="fill: #231f20;"></path>
              <path d="M120.7526,106.6601c-.0822-.0096-.121-.0144-.1094-.1094.0837.0065.1206.0165.1094.1094Z" style="fill: #231f20;"></path>
              <path d="M121.8466,106.7695c-.126-.003-.3198.0601-.3282-.1094.1258.0024.3199-.0596.3282.1094Z" style="fill: #231f20;"></path>
              <path d="M100.1857,92.1101c-.0255-.0979-.0853-.1213-.1094-.2188l3.9383-.9299-3.8289,1.1487Z" style="fill: #231f20;"></path>
              <path d="M102.7019,98.2364c-.0507-.0911-.0741-.1534-.1094-.2188l3.282-1.4769-3.1726,1.6957Z" style="fill: #231f20;"></path>
              <path d="M108.0624,104.8003c-.0898-.0746-.1479-.1577-.2188-.2188l2.2427-1.9692-2.0239,2.188Z" style="fill: #231f20;"></path>
              <path d="M114.9545,108.6293c-.0844-.0282-.2464.0287-.3282,0l1.0393-2.4068-.7111,2.4068Z" style="fill: #231f20;"></path>
              <path d="M124.6909,108.9575c.0086.3769-.0341.7307.1094,1.094-.3203.0082-.3109-.1096-.3282-.1094l.1094-2.6256c.1575.5824.0961,1.0578.1094,1.641Z" style="fill: #231f20;"></path>
              <path d="M131.8018,109.1763c-2.2996.5129-4.6407.8148-7.0015.8752-.1435-.3632-.1008-.7171-.1094-1.094.9286.0145,1.8647-.0367,2.7897-.1094.5228-.0411.8009.0402,1.2034,0,.1886-.0188.8775-.4254.9846-.4376.4103-.0468,1.7117.3191,1.9145-.2188.0627.2758.3571.5719.2188.9846Z" style="fill: #231f20;"></path>
              <path d="M131.6924,107.2071c.1038.319.1337.6647.2188.9846.076.2855.285.5485.2188.8752-.1497.0356-.2341.0884-.3282.1094.1383-.4127-.1561-.7088-.2188-.9846-.0695-.306-.2233-1.1377-.2188-1.4222.0014-.0919-.0484-.3968.1094-.2735.0924.2309.1427.4771.2188.7111Z" style="fill: #231f20;"></path>
            </g>
          </g>
          <g>
            <path d="M66.3816,55.571c-.375.2364-.0483.2379.1641.3282.5255.2234,1.0598.4333,1.5863.6564-.2243.0758-.2744.1956-.0547.3282,5.7041,3.4437,8.1482,4.8516,10.2288,11.7056-.2692.1519-.2895.0167-.2735.3282.0367.7137.5839,2.0774.7111,2.8991,1.7626,11.3892-1.0577,24.1077.547,35.7733.0277.2014.0685.8413.4376.7111.0388.715.1843,1.4323.2188,2.1333.002.0416-.353.204-.3282.7658.0037.0837.215.0257.2188.1094.0337.7419.0617,1.3365.2188,2.188l-3.7195-.0547c-1.7027-9.3525-1.794-18.9176-2.5162-28.3889l-.2188-.0547c.0043-.161-.1268-.0916-.2188-.1094.2807-.1973.1924-.1998.2188-.4923.1802-1.9998,0-4.6801-.1094-6.728-.1991-3.7272-.3009-7.7368-2.8444-10.721-5.8836-7.9502-18.4131-8.269-26.2556-3.0632-.1966-.5497-1.3119-3.0619-1.2034-3.4461,6.6721-4.1016,15.388-5.923,23.1925-4.8682Z" style="fill: #231f20;"></path>
            <path d="M81.6974,67.0579c3.7623,9.8733,1.5908,25.1403,1.9692,35.9374.128,3.6541.5007,7.3214.9846,10.9398-.0565.1541-2.9056.0614-3.282.0547-1.2467-8.2144-1.5201-16.4297-1.4222-24.7241.0663-5.6111.7797-11.4763,0-17.0662.7626-.2221,1.6898-.0026,2.4068-.4376.2452-.1488.3799-.318.4376-.6017h-.2188l-.8752-4.1024Z" style="fill: #231f20;"></path>
            <path d="M81.6974,67.0579l.8752,4.1024h.2188c-.0576.2837-.1924.4529-.4376.6017-.6375-.5574-1.7681.0041-2.5162,0-.3367-2.1343-.9608-4.274-1.8598-6.2357.6555.0157,1.213-.4918,1.641-.9299-.4775-.3349-1.3347.5125-1.641.8205-2.1785-4.6492-5.254-6.9152-9.8459-8.8613-.5265-.2231-1.0608-.4329-1.5863-.6564-.2124-.0903-.5391-.0918-.1641-.3282,7.2516.98,12.6742,4.5544,15.3158,11.4868Z" style="fill: #231f20;"></path>
            <path d="M67.585,64.6511c-6.6008-3.3107-15.8542-.9501-21.9344,2.6256-.2559-.0503-.798-2.1741-.9299-2.5162,7.0274-4.279,15.299-4.6651,22.4814-.547.1783.1022.4184.1829.3829.4376Z" style="fill: #231f20;"></path>
            <path d="M70.6481,66.9485c-.8488-.9959-1.8997-1.7138-3.0632-2.2974.0355-.2547-.2046-.3354-.3829-.4376-7.1824-4.1181-15.4539-3.732-22.4814.547-.1157-.3001-.2188-.5691-.3282-.8752,7.8425-5.2058,20.372-4.887,26.2556,3.0632Z" style="fill: #231f20;"></path>
            <path d="M79.947,89.2658c-.098,8.2943.1755,16.5096,1.4222,24.7241-1.5374-.0274-3.4031-.0754-4.9229-.2188l-.1094-.3282,3.7195.0547c-.157-.8515-.1851-1.4461-.2188-2.188-.0038-.0837-.2151-.0257-.2188-.1094-.0248-.5617.3302-.7242.3282-.7658-.0345-.701-.18-1.4183-.2188-2.1333-.3532-6.5157-.3678-12.5202-.3282-19.0353h.547Z" style="fill: #231f20;"></path>
            <path d="M76.3368,113.4428l.1094.3282c-.447-.0422-.9503.0915-1.3128-.2735-.1697-2.4279-.4744-4.8546-.6564-7.275-.3021-4.0168-.502-8.1181-.6564-12.1432-.116-3.0248-.0561-6.0579-.2188-9.0801l.2188.0547c.7221,9.4713.8135,19.0364,2.5162,28.3889Z" style="fill: #231f20;"></path>
            <path d="M77.9778,65.4169c.014.0299-.0138.0793,0,.1094.899,1.9617,1.5231,4.1014,1.8598,6.2357.0266.1685.1039.398.1094.4376.7797,5.5899.0663,11.455,0,17.0662h-.547c.0427-7.0182.9805-13.8422-1.094-20.6763-2.0805-6.854-4.5246-8.2619-10.2288-11.7056-.2197-.1326-.1696-.2524.0547-.3282,4.5918,1.946,7.6673,4.2121,9.8459,8.8613Z" style="fill: #231f20;"></path>
            <path d="M79.4,89.2658c-.0396,6.5151-.025,12.5196.3282,19.0353-.3691.1302-.4099-.5096-.4376-.7111-1.6047-11.6656,1.2157-24.3841-.547-35.7733-.1272-.8216-.6744-2.1853-.7111-2.8991-.016-.3115.0043-.1763.2735-.3282,2.0745,6.8341,1.1367,13.6581,1.094,20.6763Z" style="fill: #231f20;"></path>
            <path d="M82.3537,71.762c-.7169.435-1.6442.2155-2.4068.4376-.0055-.0396-.0828-.2691-.1094-.4376.7481.0041,1.8787-.5574,2.5162,0Z" style="fill: #231f20;"></path>
            <path d="M77.9778,65.5263c-.0138-.0301.014-.0795,0-.1094.3062-.308,1.1634-1.1554,1.641-.8205-.428.438-.9854.9456-1.641.9299Z" style="fill: #231f20;"></path>
          </g>
          <g>
            <path d="M70.6481,77.8883c-.2824,1.6079-.5298,3.3076-.7658,4.9229-5.1623.0427-10.6445.7276-15.4252,2.735-7.9163,2.4356-13.7706,10.3788-10.3929,18.7618,3.6222,8.9897,14.9092,10.2775,22.372,5.1964,1.0118-.6889,4.8856-4.1868,4.6494-5.3605-.0824-.4094-.1018.0089-.2188-.2188.2122-.2694.467-.5934.6564-.8752.4806-.0509.1236.6243.4376.8752-.0954.38.002.9043-.1094,1.3128-.406,1.4891-1.5669,3.5448-1.9692,5.087-.0774.2966-.0047.3037.2188.3829-11.7862,9.086-31.1504,4.4628-31.0692-12.2526l.8752-4.6494c4.1787-12.655,19.0708-15.3281,30.741-15.9175Z" style="fill: #231f20;"></path>
            <path d="M73.4925,77.6695c.1094,2.0479.2896,4.7282.1094,6.728-.0264.2925.0619.2949-.2188.4923-4.1117-.796-13.0226.5653-16.9021,2.2974-6.974,3.1136-8.7064,9.6934-5.4152,16.4098-.7991-.1295-1.3023-3.2266-1.4769-3.282l-3.8836,1.8598c-3.5211-13.0145,13.9742-19.2718,24.0677-18.7071-.0048.0358.0039.0734,0,.1094-.0195.178-.1642,1.0164-.0547,1.094l3.7195-.1094c.5581-1.155-1.1958-1.0936-2.0239-1.094v-5.7981c.6894.0272,1.3885-.0199,2.0786,0Z" style="fill: #231f20;"></path>
            <path d="M70.6481,77.5601c-.0108.106.0181.2249,0,.3282-11.6701.5893-26.5622,3.2625-30.741,15.9175l-.8752,4.6494c.078-16.0553,18.3598-21.2147,31.6162-20.8951Z" style="fill: #231f20;"></path>
            <path d="M74.4771,106.2225l-1.094,1.3128c-.2548-.0604.1238-.6976.1094-.9299-.0898-1.451-.6094-3.2586-.7658-4.7588-.0201-.1933.0954-.5584-.1094-.6564.3074-.9938.1765-2.0501.3282-3.0632.4278-1.3347.7166-2.6544.8752-4.0477.1543,4.0251.3543,8.1264.6564,12.1432Z" style="fill: #231f20;"></path>
            <path d="M71.4139,77.6695v5.7981c-.4397-.0002-1.1306.2247-1.641.1094.0039-.036-.0048-.0736,0-.1094.0269-.2017.0781-.442.1094-.6564.2359-1.6154.4834-3.3151.7658-4.9229.0181-.1033-.0108-.2222,0-.3282.2611.0063.5501.1009.7658.1094Z" style="fill: #231f20;"></path>
            <path d="M73.3831,107.5353c-.4099.4918-.7562.8593-1.2034,1.3128l-.3282-3.6101c.1114-.4084.014-.9328.1094-1.3128.1595-.6357.5038-1.4644.7658-2.0786.1564,1.5003.676,3.3078.7658,4.7588.0144.2323-.3642.8695-.1094.9299Z" style="fill: #231f20;"></path>
            <path d="M71.8515,105.2379l.3282,3.6101c-.7716.7824-1.2015,1.1837-2.0786,1.8598-.2235-.0792-.2962-.0863-.2188-.3829.4023-1.5422,1.5632-3.5979,1.9692-5.087Z" style="fill: #231f20;"></path>
            <path d="M69.8823,82.8112c-.0313.2144-.0825.4547-.1094.6564-10.0934-.5647-27.5887,5.6926-24.0677,18.7071.5778,2.1358,1.8821,4.0952,3.5008,5.5793.2298.2107.3382.2702.547.4376,6.7977,5.4476,16.1954,1.9794,21.1139-4.2665.117.2277.1364-.1906.2188.2188-5.6045,9.2189-21.7503,11.2882-26.4744.1641-3.5706-8.4078,2.378-15.6261,9.8459-18.7618,4.7807-2.0074,10.2629-2.6923,15.4252-2.735Z" style="fill: #231f20;"></path>
            <path d="M71.9609,102.2842c-.1612.2886-.2347.4639-.4376.7658-.1894.2818-.4442.6058-.6564.8752-4.9185,6.2459-14.3162,9.7142-21.1139,4.2665l2.4615-2.8444c.1645.0865.3263.1492.4923.2188.5603.2348,1.2198.8624,1.8051,1.094,5.7669,2.2821,13.4533.0662,16.9021-5.1417.6258.0964.0727,1.015.547.7658Z" style="fill: #231f20;"></path>
            <path d="M54.4571,85.5462c-7.4679,3.1357-13.4165,10.354-9.8459,18.7618,4.7242,11.1241,20.8699,9.0548,26.4744-.1641.2361,1.1738-3.6377,4.6717-4.6494,5.3605-7.4628,5.0811-18.7498,3.7933-22.372-5.1964-3.3778-8.383,2.4766-16.3262,10.3929-18.7618Z" style="fill: #231f20;"></path>
            <path d="M72.7267,101.8466c-.262.6141-.6062,1.4428-.7658,2.0786-.314-.2509.043-.9261-.4376-.8752.2029-.3019.2764-.4772.4376-.7658.1867-.3342.5225-.6611.6564-1.094.2048.098.0892.4631.1094.6564Z" style="fill: #231f20;"></path>
            <path d="M51.0658,103.597c.1389.2835.3842.5633.547.8752.1379.2643.2912.4537.4376.7111l-2.8444,2.5709c-1.6187-1.4842-2.9229-3.4435-3.5008-5.5793l3.8836-1.8598c.1745.0553.6778,3.1525,1.4769,3.282Z" style="fill: #231f20;"></path>
            <path d="M69.7729,83.577c.5103.1153,1.2013-.1096,1.641-.1094.8281.0004,2.582-.061,2.0239,1.094l-3.7195.1094c-.1095-.0776.0352-.916.0547-1.094Z" style="fill: #231f20;"></path>
            <path d="M72.6173,101.1902c-.1339.4329-.4697.7598-.6564,1.094-.4743.2492.0789-.6694-.547-.7658.6637-1.0023,1.164-2.2446,1.5316-3.3914-.1517,1.013-.0208,2.0693-.3282,3.0632Z" style="fill: #231f20;"></path>
            <path d="M52.7068,105.5661c-.166-.0696-.3278-.1322-.4923-.2188l-2.4615,2.8444c-.2088-.1674-.3172-.2269-.547-.4376l2.8444-2.5709c-.1464-.2574-.2997-.4468-.4376-.7111l1.094,1.094Z" style="fill: #231f20;"></path>
          </g>
        </g>
      </g>
      <rect width="180.2979" height="165.6225" style="fill: none;"></rect>
    </g>
  </g>
</svg></svg></g></g></svg></g><g id="dark-icon"><svg xmlns="http://www.w3.org/2000/svg" version="1.1" xmlns:xlink="http://www.w3.org/1999/xlink" width="1000" height="1000"><g><g transform="matrix(5.524861878453039,0,0,5.524861878453039,0,41.43646408839777)"><svg xmlns="http://www.w3.org/2000/svg" version="1.1" xmlns:xlink="http://www.w3.org/1999/xlink" width="181" height="166"><svg width="181" height="166" viewBox="0 0 181 166" fill="none" xmlns="http://www.w3.org/2000/svg">
  <g clip-path="url(#clip0_2975_1761)">
    <path d="M83.8084 78.9167C83.8084 67.4514 79.5552 55.5195 62.0663 55.5195C54.859 55.5195 48.0029 57.5258 43.2735 60.6002L45.6406 67.4515C49.658 64.8534 55.2102 63.1983 60.5267 63.1983C72.2277 63.1983 73.5268 71.7094 73.5268 76.4341V77.6177C51.4286 77.4974 39.1406 85.0607 39.1406 98.8883C39.1406 107.159 45.0488 115.314 56.6296 115.314C64.7847 115.314 70.9287 111.297 74.1186 106.808H74.4746L75.3021 114.015H84.7563C84.0442 110.113 83.8085 105.268 83.8085 100.308L83.8084 78.9167ZM73.7673 94.7506C73.7673 95.8139 73.5267 96.9975 73.1755 98.0608C71.5204 102.906 66.7909 107.635 59.3479 107.635C54.0314 107.635 49.5377 104.441 49.5377 97.7047C49.5377 86.5955 62.4223 84.5892 73.7673 84.8249V94.7506Z" fill="white"></path>
    <path d="M124.141 106.925C112.796 106.925 104.285 98.7697 104.285 85.5339C104.285 73.6019 111.377 63.912 124.497 63.912C130.17 63.912 134.067 65.211 136.549 66.6256L138.912 58.5908C136.078 57.1715 130.641 55.6367 124.497 55.6367C105.825 55.6367 93.7676 68.401 93.7676 86.0103C93.7676 103.499 104.997 115.2 122.25 115.2C129.934 115.2 135.958 113.31 138.676 111.89L136.905 104.091C133.951 105.39 130.049 106.925 124.141 106.925Z" fill="white"></path>
    <path d="M96.366 51.1901C96.366 46.8167 93.5322 43.7422 89.3945 43.7422C85.2568 43.7422 82.3027 46.8166 82.3027 51.1901C82.3027 55.4433 85.1414 58.6331 89.2742 58.6331C93.6476 58.6331 96.366 55.4432 96.366 51.1901Z" fill="white"></path>
    <path d="M88.4254 43.5373C98.3329 42.5605 98.9288 57.7511 90.1758 58.6343C80.28 59.6328 79.5052 44.4168 88.4254 43.5373Z" fill="white"></path>
    <path d="M88.5345 44.304C90.907 44.1915 90.4216 47.0697 88.6439 47.3672C85.8516 47.8344 85.7933 44.434 88.5345 44.304Z" fill="white"></path>
    <path d="M91.598 45.5068C93.0076 45.3811 91.4519 47.74 90.7228 47.1478C90.111 46.6509 91.1353 45.5481 91.598 45.5068Z" fill="white"></path>
    <path d="M137.819 61.479C137.63 61.5052 137.412 61.3144 137.272 61.2602C126.216 56.4907 112.521 58.4447 104.452 67.2224C95.2893 77.1899 96.0956 95.5941 106.367 105.02C114.613 112.587 127.874 113.142 137.709 108.52C137.716 108.549 137.981 108.776 138.038 109.013C138.126 109.385 138.71 111.678 138.639 111.802C126.677 117.096 110.373 116.963 101.061 106.715C91.4068 96.0905 91.2087 77.1076 100.186 66.0192C109.207 54.8757 125.789 53.0074 138.53 58.3066L138.694 58.5801C138.442 59.5389 138.048 60.522 137.819 61.479Z" fill="white"></path>
    <path d="M137.272 61.2599C137.412 61.3141 137.63 61.5049 137.819 61.4787C137.723 61.8794 137.713 62.3743 137.6 62.7915C133.294 60.8687 128.207 60.081 123.488 60.2753C107.777 60.9222 97.6925 72.5887 99.4199 88.2813C99.5517 89.4784 99.7881 90.7236 100.076 91.8914C100.1 91.9889 100.16 92.0123 100.186 92.1102C100.753 94.2927 101.53 96.0524 102.593 98.0177C102.628 98.0831 102.651 98.1453 102.702 98.2365C104.22 100.964 105.478 102.543 107.844 104.582C107.915 104.643 107.973 104.726 108.062 104.8C110.095 106.489 112.11 107.746 114.626 108.629C114.708 108.658 114.87 108.601 114.955 108.629C118.584 109.841 120.653 109.989 124.472 109.942C124.49 109.942 124.48 110.06 124.8 110.051C127.161 109.991 129.502 109.689 131.802 109.176C131.896 109.155 131.98 109.102 132.13 109.067C133.972 108.629 135.747 108.047 137.491 107.316C137.614 107.777 137.643 108.13 137.709 108.41C122.169 115.121 103.278 109.318 99.3105 91.6178C94.0315 68.067 116.059 53.0491 137.272 61.2599Z" fill="white"></path>
    <path d="M137.272 61.2596C116.059 53.0487 94.0315 68.0668 99.3104 91.6177C103.278 109.317 122.169 115.121 137.709 108.41C137.718 108.445 137.701 108.485 137.709 108.52C127.874 113.141 114.613 112.587 106.367 105.019C96.0955 95.5935 95.2892 77.1893 104.452 67.2218C112.521 58.4441 126.216 56.4901 137.272 61.2596Z" fill="white"></path>
    <path d="M106.312 74.8248C102.368 83.7024 103.889 96.7934 111.946 103.05C113.782 104.475 117.108 106.138 119.44 106.332C119.428 106.427 119.467 106.431 119.549 106.441C119.917 106.484 120.273 106.522 120.643 106.55C120.632 106.645 120.67 106.65 120.753 106.66C120.992 106.688 121.271 106.655 121.518 106.66C121.527 106.829 121.721 106.766 121.847 106.769C122.1 106.775 122.359 106.768 122.612 106.769C123.465 107.194 124.325 106.369 124.582 107.316L124.472 109.942C120.653 109.989 118.584 109.841 114.955 108.629L115.666 106.222L114.626 108.629C112.11 107.746 110.095 106.488 108.062 104.8L110.086 102.612L107.844 104.581C105.478 102.542 104.22 100.964 102.702 98.2362L105.875 96.5405L102.593 98.0174C101.53 96.0521 100.753 94.2924 100.186 92.1099L104.015 90.9612L100.076 91.8911C99.7881 90.7232 99.5517 89.4781 99.4199 88.281L99.8575 83.5222L103.358 83.4128L99.9669 82.9752C100.153 80.4311 100.993 74.116 104.179 73.731C105.522 73.5687 105.414 74.1955 106.312 74.8248Z" fill="white"></path>
    <path d="M123.488 60.2754L123.379 63.6668C123.234 63.6714 123.085 63.659 122.941 63.6668C122.476 59.826 117.482 61.3176 116.651 64.2138C115.675 61.2525 109.5 64.602 111.235 67.0035C110.906 66.9217 110.768 66.3242 110.579 66.6753C110.504 68.9878 110.128 67.7937 109.54 67.7146C108.253 67.5416 106.722 68.1631 105.711 68.918C105.48 69.0902 103.822 70.805 103.796 70.9419C103.721 71.3367 106.572 73.0221 107.078 73.294C106.827 73.7446 106.522 74.3551 106.313 74.8256C105.414 74.1964 105.523 73.5693 104.179 73.7316C100.993 74.1165 100.153 80.4317 99.9675 82.9758L103.359 83.4134L99.8581 83.5228L99.4205 88.2816C97.693 72.589 107.777 60.9223 123.488 60.2754Z" fill="white"></path>
    <path d="M122.941 63.6666C116.502 64.0154 110.232 67.6414 107.078 73.2937C106.572 73.0219 103.721 71.3364 103.796 70.9416C103.822 70.8048 105.48 69.0899 105.711 68.9177C106.722 68.1628 108.253 67.5413 109.54 67.7143C110.128 67.7934 110.504 68.9875 110.579 66.675C110.768 66.3239 110.906 66.9214 111.235 67.0032C109.5 64.6017 115.675 61.2522 116.651 64.2135C117.482 61.3173 122.476 59.8258 122.941 63.6666Z" fill="white"></path>
    <path d="M137.601 62.791C137.296 63.9195 136.962 65.0481 136.671 66.1824C132.325 64.6952 128.043 63.5169 123.379 63.6662L123.488 60.2748C128.208 60.0805 133.295 60.8682 137.601 62.791Z" fill="white"></path>
    <path d="M130.49 106.113C130.473 106.519 130.995 106.731 131.365 106.77C131.361 107.054 131.515 107.886 131.584 108.192C131.381 108.73 130.08 108.364 129.67 108.411C129.562 108.423 128.874 108.829 128.685 108.848C128.282 108.888 128.004 108.807 127.482 108.848C126.557 108.921 125.621 108.972 124.692 108.958C124.679 108.374 124.74 107.899 124.582 107.317C124.326 106.369 123.466 107.194 122.613 106.77C125.421 106.778 127.731 106.687 130.49 106.113Z" fill="white"></path>
    <path d="M137.162 105.895C136.649 105.717 137.098 105.285 136.67 105.348C136.152 106.001 134.889 105.973 134.482 106.114C134.063 106.258 133.268 106.905 132.95 106.989C132.616 107.077 132.378 106.521 131.692 107.208C131.616 106.974 131.566 106.728 131.473 106.497C131.315 106.373 131.365 106.678 131.364 106.77C130.993 106.731 130.472 106.52 130.489 106.114C132.502 105.695 134.72 104.996 136.56 104.145L136.834 104.309C136.999 104.797 137.029 105.426 137.162 105.895Z" fill="white"></path>
    <path d="M137.163 105.893C137.207 106.048 137.233 106.183 137.273 106.331C135.962 107.544 133.628 107.646 131.912 108.191C131.827 107.871 131.797 107.525 131.693 107.206C132.38 106.52 132.617 107.075 132.951 106.987C133.269 106.904 134.064 106.256 134.483 106.112C134.89 105.972 136.153 105.999 136.671 105.346C137.1 105.283 136.65 105.715 137.163 105.893Z" fill="white"></path>
    <path d="M137.491 107.317C135.748 108.048 133.972 108.629 132.131 109.067C132.197 108.74 131.988 108.477 131.912 108.192C133.628 107.648 135.962 107.545 137.273 106.332C137.363 106.669 137.411 107.018 137.491 107.317Z" fill="white"></path>
    <path d="M119.549 106.441C119.467 106.432 119.428 106.427 119.44 106.332C119.523 106.339 119.56 106.348 119.549 106.441Z" fill="white"></path>
    <path d="M120.754 106.66C120.672 106.651 120.633 106.646 120.645 106.551C120.728 106.557 120.765 106.567 120.754 106.66Z" fill="white"></path>
    <path d="M121.848 106.769C121.722 106.766 121.528 106.829 121.52 106.66C121.645 106.662 121.839 106.6 121.848 106.769Z" fill="white"></path>
    <path d="M100.186 92.1096C100.16 92.0117 100.1 91.9883 100.076 91.8908L104.014 90.9609L100.186 92.1096Z" fill="white"></path>
    <path d="M102.703 98.2367C102.652 98.1456 102.629 98.0833 102.594 98.0179L105.876 96.541L102.703 98.2367Z" fill="white"></path>
    <path d="M108.063 104.799C107.973 104.725 107.915 104.642 107.844 104.581L110.086 102.611L108.063 104.799Z" fill="white"></path>
    <path d="M114.955 108.629C114.871 108.601 114.709 108.658 114.627 108.629L115.666 106.223L114.955 108.629Z" fill="white"></path>
    <path d="M124.691 108.957C124.7 109.334 124.657 109.688 124.801 110.051C124.481 110.06 124.49 109.942 124.473 109.942L124.582 107.316C124.74 107.899 124.678 108.374 124.691 108.957Z" fill="white"></path>
    <path d="M131.802 109.176C129.503 109.689 127.162 109.991 124.801 110.051C124.657 109.688 124.7 109.334 124.691 108.957C125.62 108.972 126.556 108.921 127.481 108.848C128.004 108.807 128.282 108.888 128.685 108.848C128.873 108.829 129.562 108.422 129.669 108.41C130.079 108.363 131.381 108.729 131.584 108.191C131.646 108.467 131.941 108.763 131.802 109.176Z" fill="white"></path>
    <path d="M131.692 107.207C131.796 107.526 131.826 107.872 131.911 108.191C131.987 108.477 132.196 108.74 132.13 109.067C131.98 109.102 131.896 109.155 131.801 109.176C131.94 108.763 131.645 108.467 131.583 108.191C131.513 107.885 131.359 107.054 131.364 106.769C131.365 106.677 131.315 106.372 131.473 106.496C131.566 106.727 131.616 106.973 131.692 107.207Z" fill="white"></path>
    <path d="M66.3815 55.5712C66.0065 55.8076 66.3332 55.8091 66.5456 55.8994C67.0711 56.1228 67.6054 56.3327 68.1319 56.5558C67.9076 56.6316 67.8575 56.7514 68.0772 56.884C73.7813 60.3277 76.2254 61.7356 78.306 68.5896C78.0368 68.7415 78.0165 68.6063 78.0325 68.9178C78.0692 69.6315 78.6163 70.9952 78.7435 71.8169C80.5061 83.2061 77.6859 95.9245 79.2906 107.59C79.3183 107.792 79.3591 108.431 79.7282 108.301C79.767 109.016 79.9124 109.734 79.9469 110.435C79.9489 110.476 79.5939 110.639 79.6187 111.2C79.6224 111.284 79.8338 111.226 79.8376 111.31C79.8713 112.052 79.8993 112.646 80.0564 113.498L76.3368 113.443C74.6341 104.091 74.5429 94.5255 73.8207 85.0542L73.6019 84.9995C73.6062 84.8385 73.4751 84.9079 73.3831 84.8901C73.6638 84.6928 73.5755 84.6903 73.6019 84.3978C73.7821 82.398 73.6019 79.7177 73.4925 77.6698C73.2934 73.9426 73.1916 69.933 70.6481 66.9488C64.7645 58.9986 52.235 58.6798 44.3925 63.8856C44.1959 63.3359 43.0806 60.8237 43.1891 60.4395C49.8612 56.3379 58.577 54.5164 66.3815 55.5712Z" fill="white"></path>
    <path d="M81.6963 67.0587C85.4586 76.932 83.2871 92.199 83.6655 102.996C83.7935 106.65 84.1662 110.317 84.6501 113.936C84.5936 114.09 81.7445 113.997 81.3681 113.991C80.1214 105.776 79.848 97.5609 79.9459 89.2665C80.0122 83.6554 80.7256 77.7902 79.9459 72.2003C80.7085 71.9782 81.6357 72.1977 82.3527 71.7627C82.5979 71.6139 82.7326 71.4447 82.7903 71.161H82.5715L81.6963 67.0587Z" fill="white"></path>
    <path d="M81.6982 67.0572L82.5734 71.1596H82.7922C82.7346 71.4433 82.5998 71.6125 82.3546 71.7613C81.7171 71.2039 80.5865 71.7654 79.8384 71.7613C79.5017 69.627 78.8776 67.4873 77.9786 65.5256C78.6341 65.5413 79.1916 65.0338 79.6196 64.5957C79.1421 64.2608 78.2849 65.1082 77.9786 65.4162C75.8001 60.767 72.7246 58.501 68.1327 56.5549C67.6062 56.3318 67.0719 56.122 66.5464 55.8985C66.334 55.8082 66.0073 55.8067 66.3823 55.5703C73.6339 56.5503 79.0566 60.1248 81.6982 67.0572Z" fill="white"></path>
    <path d="M67.585 64.6508C60.9842 61.3401 51.7308 63.7007 45.6506 67.2764C45.3947 67.2261 44.8526 65.1023 44.7207 64.7602C51.7481 60.4812 60.0197 60.0951 67.2021 64.2132C67.3804 64.3154 67.6205 64.3961 67.585 64.6508Z" fill="white"></path>
    <path d="M70.6483 66.9495C69.7995 65.9536 68.7486 65.2357 67.5851 64.6521C67.6206 64.3974 67.3805 64.3167 67.2022 64.2145C60.0198 60.0964 51.7483 60.4825 44.7208 64.7615C44.6051 64.4614 44.502 64.1924 44.3926 63.8863C52.2351 58.6805 64.7647 58.9993 70.6483 66.9495Z" fill="white"></path>
    <path d="M79.946 89.2656C79.848 97.5599 80.1215 105.775 81.3682 113.99C79.8308 113.962 77.9651 113.914 76.4453 113.771L76.3359 113.443L80.0554 113.497C79.8984 112.646 79.8703 112.051 79.8366 111.309C79.8328 111.226 79.6215 111.284 79.6178 111.2C79.593 110.638 79.948 110.476 79.946 110.434C79.9115 109.733 79.766 109.016 79.7272 108.301C79.374 101.785 79.3594 95.7807 79.399 89.2656H79.946Z" fill="white"></path>
    <path d="M76.3366 113.444L76.446 113.772C75.999 113.73 75.4957 113.863 75.1332 113.498C74.9635 111.07 74.6588 108.644 74.4768 106.223C74.1747 102.207 73.9748 98.1052 73.8204 94.0801C73.7044 91.0553 73.7643 88.0222 73.6016 85L73.8204 85.0547C74.5425 94.526 74.6339 104.091 76.3366 113.444Z" fill="white"></path>
    <path d="M77.9776 65.4178C77.9916 65.4477 77.9638 65.4971 77.9776 65.5272C78.8766 67.4889 79.5007 69.6286 79.8374 71.7629C79.864 71.9314 79.9413 72.1609 79.9468 72.2005C80.7265 77.7904 80.0131 83.6555 79.9468 89.2667H79.3998C79.4425 82.2485 80.3803 75.4245 78.3058 68.5904C76.2253 61.7364 73.7812 60.3285 68.077 56.8848C67.8573 56.7522 67.9074 56.6324 68.1317 56.5566C72.7235 58.5026 75.799 60.7686 77.9776 65.4178Z" fill="white"></path>
    <path d="M79.3989 89.2662C79.3593 95.7813 79.3739 101.786 79.7271 108.302C79.358 108.432 79.3172 107.792 79.2895 107.59C77.6848 95.9248 80.5052 83.2063 78.7425 71.8171C78.6153 70.9955 78.0681 69.6318 78.0314 68.918C78.0154 68.6065 78.0357 68.7417 78.3049 68.5898C80.3794 75.4239 79.4416 82.248 79.3989 89.2662Z" fill="white"></path>
    <path d="M82.3541 71.7624C81.6372 72.1974 80.7099 71.9779 79.9473 72.2C79.9418 72.1604 79.8645 71.9309 79.8379 71.7624C80.586 71.7665 81.7166 71.205 82.3541 71.7624Z" fill="white"></path>
    <path d="M77.9786 65.5264C77.9648 65.4963 77.9926 65.4469 77.9786 65.417C78.2848 65.109 79.142 64.2616 79.6196 64.5965C79.1916 65.0345 78.6342 65.5421 77.9786 65.5264Z" fill="white"></path>
    <path d="M70.6478 77.8887C70.3654 79.4966 70.118 81.1963 69.882 82.8116C64.7197 82.8543 59.2375 83.5392 54.4568 85.5466C46.5405 87.9822 40.6862 95.9254 44.0639 104.308C47.6861 113.298 58.9731 114.586 66.4359 109.505C67.4477 108.816 71.3215 105.318 71.0853 104.144C71.0029 103.735 70.9835 104.153 70.8665 103.925C71.0787 103.656 71.3335 103.332 71.5229 103.05C72.0035 102.999 71.6465 103.675 71.9605 103.925C71.8651 104.305 71.9625 104.83 71.8511 105.238C71.4451 106.727 70.2842 108.783 69.8819 110.325C69.8045 110.622 69.8772 110.629 70.1007 110.708C58.3145 119.794 38.9503 115.171 39.0315 98.4556L39.9067 93.8062C44.0854 81.1512 58.9776 78.4781 70.6478 77.8887Z" fill="white"></path>
    <path d="M73.4921 77.671C73.6015 79.7189 73.7817 82.3992 73.6015 84.399C73.5751 84.6915 73.6634 84.6939 73.3827 84.8913C69.271 84.0953 60.3601 85.4566 56.4806 87.1887C49.5066 90.3023 47.7742 96.8821 51.0654 103.598C50.2663 103.469 49.7631 100.372 49.5885 100.316L45.7049 102.176C42.1838 89.1618 59.6791 82.9045 69.7726 83.4692C69.7678 83.505 69.7765 83.5426 69.7726 83.5786C69.7531 83.7566 69.6084 84.595 69.7179 84.6726L73.4374 84.5632C73.9955 83.4082 72.2416 83.4696 71.4135 83.4692V77.6711C72.1029 77.6983 72.802 77.6511 73.4921 77.671Z" fill="white"></path>
    <path d="M70.6475 77.5607C70.6367 77.6667 70.6656 77.7856 70.6475 77.8889C58.9774 78.4782 44.0853 81.1514 39.9065 93.8064L39.0312 98.4558C39.1093 82.4005 57.3911 77.2411 70.6475 77.5607Z" fill="white"></path>
    <path d="M74.477 106.223L73.383 107.536C73.1282 107.476 73.5068 106.838 73.4924 106.606C73.4026 105.155 72.883 103.348 72.7266 101.847C72.7065 101.654 72.822 101.289 72.6172 101.191C72.9246 100.197 72.7937 99.1409 72.9454 98.1278C73.3732 96.7931 73.662 95.4734 73.8206 94.0801C73.9749 98.1052 74.1749 102.206 74.477 106.223Z" fill="white"></path>
    <path d="M71.414 77.67V83.468C70.9743 83.4678 70.2834 83.6928 69.773 83.5775C69.7769 83.5415 69.7682 83.5038 69.773 83.468C69.7999 83.2663 69.8511 83.0261 69.8824 82.8117C70.1183 81.1963 70.3658 79.4965 70.6482 77.8887C70.6663 77.7854 70.6374 77.6665 70.6482 77.5605C70.9093 77.5668 71.1983 77.6615 71.414 77.67Z" fill="white"></path>
    <path d="M73.3832 107.536C72.9733 108.028 72.627 108.396 72.1798 108.849L71.8516 105.239C71.963 104.831 71.8656 104.306 71.961 103.926C72.1205 103.291 72.4648 102.462 72.7268 101.848C72.8832 103.348 73.4028 105.155 73.4926 106.606C73.507 106.839 73.1284 107.476 73.3832 107.536Z" fill="white"></path>
    <path d="M71.8507 105.238L72.1789 108.848C71.4073 109.631 70.9774 110.032 70.1003 110.708C69.8768 110.629 69.8041 110.622 69.8815 110.325C70.2838 108.783 71.4447 106.727 71.8507 105.238Z" fill="white"></path>
    <path d="M69.8826 82.8125C69.8513 83.0269 69.8001 83.2672 69.7732 83.4689C59.6798 82.9042 42.1845 89.1615 45.7055 102.176C46.2833 104.312 47.5876 106.271 49.2063 107.755C49.4361 107.966 49.5445 108.025 49.7533 108.193C56.551 113.64 65.9487 110.172 70.8672 103.926C70.9842 104.154 71.0036 103.736 71.086 104.145C65.4815 113.364 49.3357 115.433 44.6116 104.309C41.041 95.9015 46.9896 88.6832 54.4575 85.5475C59.2382 83.5401 64.7203 82.8552 69.8826 82.8125Z" fill="white"></path>
    <path d="M71.9599 102.285C71.7987 102.574 71.7252 102.749 71.5223 103.051C71.3329 103.333 71.0781 103.657 70.8659 103.926C65.9474 110.172 56.5497 113.641 49.752 108.193L52.2135 105.348C52.378 105.435 52.5398 105.498 52.7058 105.567C53.2661 105.802 53.9256 106.43 54.5109 106.661C60.2778 108.943 67.9642 106.727 71.413 101.52C72.0388 101.616 71.4856 102.535 71.9599 102.285Z" fill="white"></path>
    <path d="M54.457 85.5469C46.9891 88.6826 41.0405 95.9009 44.6111 104.309C49.3353 115.433 65.481 113.363 71.0855 104.145C71.3216 105.318 67.4478 108.816 66.4361 109.505C58.9733 114.586 47.6863 113.298 44.0641 104.309C40.6863 95.9257 46.5407 87.9825 54.457 85.5469Z" fill="white"></path>
    <path d="M72.7268 101.848C72.4648 102.462 72.1206 103.291 71.961 103.926C71.647 103.676 72.004 103 71.5234 103.051C71.7263 102.749 71.7998 102.574 71.961 102.285C72.1477 101.951 72.4835 101.624 72.6174 101.191C72.8222 101.289 72.7066 101.655 72.7268 101.848Z" fill="white"></path>
    <path d="M51.0657 103.598C51.2046 103.882 51.4499 104.162 51.6127 104.474C51.7506 104.738 51.9039 104.927 52.0503 105.185L49.2059 107.756C47.5872 106.271 46.283 104.312 45.7051 102.176L49.5887 100.316C49.7632 100.372 50.2666 103.469 51.0657 103.598Z" fill="white"></path>
    <path d="M69.7729 83.5767C70.2832 83.692 70.9742 83.4671 71.4139 83.4673C72.242 83.4677 73.9959 83.4063 73.4378 84.5613L69.7183 84.6707C69.6088 84.5931 69.7534 83.7547 69.7729 83.5767Z" fill="white"></path>
    <path d="M72.6175 101.19C72.4836 101.623 72.1478 101.95 71.9611 102.284C71.4868 102.533 72.04 101.615 71.4141 101.518C72.0778 100.516 72.5781 99.2738 72.9457 98.127C72.794 99.14 72.9249 100.196 72.6175 101.19Z" fill="white"></path>
    <path d="M52.7059 105.567C52.5399 105.497 52.3781 105.434 52.2136 105.348L49.7521 108.192C49.5433 108.025 49.4349 107.965 49.2051 107.755L52.0495 105.184C51.9031 104.926 51.7498 104.737 51.6119 104.473L52.7059 105.567Z" fill="white"></path>
  </g>
  <defs>
    <clipPath id="clip0_2975_1761">
      <rect width="180.298" height="165.622" fill="white"></rect>
    </clipPath>
  </defs>
</svg></svg></g></g></svg></g></svg>